<svg id="_x31__x2C_5" height="512" viewBox="0 0 24 24" width="512" xmlns="http://www.w3.org/2000/svg"><path d="m15.428 4.981-11.88.023c-.205 0-.399-.095-.524-.257s-.168-.373-.115-.572l.528-1.994c.28-1.058 1.24-1.799 2.334-1.801l7.416-.015c1.094-.002 2.057.735 2.341 1.792l.536 1.992c.054.198.011.409-.113.573-.125.162-.318.258-.523.259z" fill="#cfd8dc"/><path d="m13.616 21.299-8.187.018c-1.045.002-1.916-.801-1.998-1.843l-.935-11.845 13.996-.03-.886 11.849c-.078 1.042-.945 1.848-1.99 1.851z" fill="#cfd8dc"/><path d="m17.25 7.75h-15.5c-.552 0-1-.448-1-1v-1c0-.552.448-1 1-1h15.5c.552 0 1 .448 1 1v1c0 .552-.448 1-1 1z" fill="#90a4ae"/><path d="m17.104 23.048c-.549-.401-5.354-3.998-5.354-7.05 0-1.791 1.488-3.248 3.317-3.248.941 0 1.817.387 2.433 1.037.616-.65 1.492-1.037 2.433-1.037 1.829 0 3.317 1.457 3.317 3.248 0 3.052-4.806 6.65-5.354 7.05-.235.172-.557.172-.792 0z" fill="#00bcd4"/><path d="m16.341 10.5c-.018 0-.036-.001-.054-.002-.413-.029-.725-.388-.695-.801l.141-2c.028-.413.388-.725.801-.695s.725.388.695.801l-.141 2c-.027.395-.358.697-.747.697z"/><path d="m17.5 24c-.157 0-.314-.05-.447-.148-.62-.46-6.053-4.601-6.053-8.114 0-2.061 1.683-3.738 3.75-3.738 1.063 0 2.054.446 2.75 1.194.696-.748 1.687-1.194 2.75-1.194 2.067 0 3.75 1.677 3.75 3.738 0 3.513-5.433 7.653-6.053 8.113-.133.099-.29.149-.447.149zm-2.75-10.5c-1.24 0-2.25 1.004-2.25 2.238 0 2.142 3.275 5.191 5 6.564 1.724-1.374 5-4.427 5-6.564 0-1.234-1.01-2.238-2.25-2.238-.897 0-1.707.527-2.063 1.343-.238.547-1.137.547-1.375 0-.355-.816-1.165-1.343-2.062-1.343z"/><path d="m10.25 22h-4.89c-1.439 0-2.643-1.125-2.738-2.561l-.851-11.634c-.03-.413.28-.772.693-.803.415-.015.772.28.803.693l.851 11.64c.044.655.589 1.165 1.242 1.165h4.89c.414 0 .75.336.75.75s-.336.75-.75.75z"/><path d="m17.25 8.5h-15.5c-.965 0-1.75-.785-1.75-1.75v-1c0-.965.785-1.75 1.75-1.75h15.5c.965 0 1.75.785 1.75 1.75v1c0 .965-.785 1.75-1.75 1.75zm-15.5-3c-.138 0-.25.112-.25.25v1c0 .138.112.25.25.25h15.5c.138 0 .25-.112.25-.25v-1c0-.138-.112-.25-.25-.25z"/><path d="m16.25 5.25c-.332 0-.635-.222-.725-.557l-.604-2.266c-.146-.545-.642-.927-1.207-.927h-8.428c-.565 0-1.062.382-1.207.928l-.604 2.265c-.107.4-.514.644-.918.532-.4-.106-.638-.518-.531-.918l.604-2.266c.32-1.202 1.413-2.041 2.656-2.041h8.428c1.243 0 2.336.839 2.656 2.041l.604 2.266c.106.4-.131.812-.531.918-.064.017-.13.025-.193.025z"/></svg>